<?xml version="1.0" standalone="no"?>
<!DOCTYPE svg PUBLIC "-//W3C//DTD SVG 20010904//EN"
 "http://www.w3.org/TR/2001/REC-SVG-20010904/DTD/svg10.dtd">
<svg version="1.0" xmlns="http://www.w3.org/2000/svg"
 width="512.000000pt" height="512.000000pt" viewBox="0 0 512.000000 512.000000"
 preserveAspectRatio="xMidYMid meet">

<g transform="translate(0.000000,512.000000) scale(0.100000,-0.100000)"
fill="#000000" stroke="none">
<path d="M2386 5019 c-290 -40 -544 -167 -756 -379 -266 -265 -402 -607 -387
-975 14 -349 141 -639 387 -885 192 -192 411 -310 680 -367 131 -27 383 -25
519 6 314 69 579 234 765 476 141 183 209 327 257 546 31 136 33 388 6 519
-113 534 -513 935 -1042 1045 -95 20 -332 28 -429 14z m422 -158 c410 -90 741
-389 871 -788 41 -126 55 -220 55 -363 0 -143 -14 -237 -55 -363 -131 -403
-467 -703 -889 -793 -112 -24 -353 -24 -458 0 -479 107 -827 454 -928 926 -25
117 -25 343 0 460 110 515 517 882 1046 944 72 9 273 -4 358 -23z"/>
<path d="M2431 4759 c-275 -32 -542 -187 -713 -413 -157 -207 -236 -486 -209
-733 42 -382 259 -692 596 -854 298 -143 623 -141 920 6 455 225 683 724 555
1220 -11 44 -45 130 -75 190 -162 329 -468 543 -835 585 -97 11 -134 11 -239
-1z m356 -164 c320 -81 577 -340 659 -663 35 -137 35 -307 0 -444 -72 -285
-278 -519 -551 -628 -166 -67 -382 -81 -557 -36 -608 155 -884 860 -543 1387
58 90 174 206 264 264 217 140 477 183 728 120z"/>
<path d="M2515 4515 c-35 -34 -35 -112 -2 -143 53 -50 117 -10 117 72 0 83
-64 123 -115 71z"/>
<path d="M1993 4308 c-29 -14 -48 -60 -34 -86 16 -31 80 -82 102 -82 26 0 69
44 69 71 0 24 -79 109 -101 108 -8 0 -24 -5 -36 -11z"/>
<path d="M3034 4276 c-25 -25 -44 -53 -44 -65 0 -27 43 -71 69 -71 25 0 90 55
102 87 11 30 -6 67 -38 82 -36 17 -42 15 -89 -33z"/>
<path d="M2515 4185 c-25 -24 -25 -27 -25 -196 0 -168 0 -172 -25 -201 -17
-21 -25 -41 -25 -69 0 -83 55 -135 134 -126 36 3 53 -3 134 -50 106 -62 142
-66 175 -21 34 46 13 75 -104 142 -54 32 -99 64 -99 71 0 7 -11 29 -25 49 -24
36 -25 42 -25 207 0 167 0 170 -25 194 -31 32 -59 32 -90 0z"/>
<path d="M1755 3755 c-14 -13 -25 -33 -25 -45 0 -11 11 -32 25 -45 34 -35 112
-35 143 -2 50 53 10 117 -72 117 -36 0 -52 -5 -71 -25z"/>
<path d="M3222 3757 c-50 -53 -10 -117 72 -117 36 0 52 5 71 25 14 13 25 34
25 45 0 12 -11 32 -25 45 -34 35 -112 35 -143 2z"/>
<path d="M2005 3249 c-50 -44 -59 -65 -45 -99 14 -34 52 -53 83 -41 32 12 87
77 87 102 0 26 -43 69 -69 69 -11 0 -36 -14 -56 -31z"/>
<path d="M3015 3255 c-14 -13 -25 -33 -25 -44 0 -22 51 -86 82 -102 28 -15 74
6 88 41 14 34 5 55 -45 99 -43 37 -68 39 -100 6z"/>
<path d="M2512 3047 c-32 -34 -31 -109 3 -142 13 -14 34 -25 45 -25 12 0 32
11 45 25 35 34 35 112 2 143 -30 28 -68 28 -95 -1z"/>
<path d="M1773 2255 c-92 -20 -205 -68 -558 -238 l-320 -154 -32 66 c-36 75
-84 122 -141 139 -80 24 -85 23 -447 -128 -134 -56 -195 -138 -182 -245 6 -52
600 -1479 634 -1524 37 -48 122 -85 181 -79 26 3 133 40 241 84 165 67 202 86
242 124 73 70 87 150 44 255 -14 33 -25 63 -25 67 0 14 240 128 301 144 37 10
76 13 102 9 23 -3 222 -59 442 -123 l400 -116 120 0 c98 0 140 5 230 28 134
34 1729 645 1797 688 145 91 240 275 225 436 -14 148 -106 253 -261 297 -73
21 -231 22 -337 1 -42 -8 -294 -78 -560 -156 l-484 -142 -20 28 c-37 54 -110
120 -155 141 -25 11 -194 61 -375 109 -302 81 -336 92 -398 132 -95 61 -259
137 -338 156 -79 19 -239 20 -326 1z m296 -141 c87 -22 190 -70 292 -135 80
-52 93 -56 406 -140 395 -107 387 -104 429 -142 160 -140 62 -406 -150 -407
-32 0 -209 43 -497 120 -246 66 -455 120 -464 120 -22 0 -65 -45 -65 -69 0
-11 10 -31 23 -45 19 -22 86 -43 477 -148 528 -141 556 -145 671 -91 137 64
210 165 227 317 l7 59 474 138 c260 76 509 146 553 155 111 23 267 16 324 -14
81 -42 121 -116 111 -204 -12 -96 -82 -209 -160 -257 -18 -11 -320 -131 -672
-266 -1137 -439 -1101 -427 -1275 -428 l-105 0 -398 116 c-218 64 -424 119
-456 123 -89 10 -185 -16 -338 -90 -85 -42 -133 -60 -136 -53 -3 7 -93 223
-201 481 -108 259 -196 473 -196 477 0 4 17 14 38 22 20 8 169 79 329 156 161
78 316 151 345 162 147 58 286 73 407 43z m-1362 -197 c15 -15 613 -1449 613
-1471 0 -36 -50 -67 -220 -137 -177 -73 -229 -85 -255 -58 -16 16 -615 1450
-615 1473 0 36 50 66 230 140 185 76 217 83 247 53z"/>
</g>
</svg>
